<svg width="26" height="25" viewBox="0 0 26 25" fill="none" xmlns="http://www.w3.org/2000/svg">
<path fill-rule="evenodd" clip-rule="evenodd" d="M12.8609 0.000650658C11.6801 0.0762456 9.41994 0.690276 7.87599 1.65399C5.02865 3.60169 5.73069 6.83163 6.46203 8.37356C6.80845 9.10395 7.21291 10.2531 6.90088 11.3438C6.62227 12.3177 6.99834 12.9507 7.24212 13.1941C7.4252 13.377 7.9108 13.4225 8.4717 13.4751C8.65764 13.4925 8.85192 13.5107 9.04613 13.535C9.82623 13.6324 10.1188 13.9732 10.1675 14.2654C10.2065 14.4991 10.1838 15.0444 10.1675 15.2879C10.4576 15.5293 11.3998 15.9144 12.8609 15.9208C12.8671 15.9208 12.8733 15.9209 12.8794 15.9209C12.8855 15.9209 12.8917 15.9209 12.8978 15.9209C14.359 15.9145 15.3012 15.5293 15.5913 15.2879C15.575 15.0444 15.5523 14.4991 15.5913 14.2654C15.64 13.9732 15.9326 13.6324 16.7127 13.535C16.9069 13.5107 17.1011 13.4925 17.287 13.4751C17.8479 13.4225 18.3336 13.377 18.5167 13.1941C18.7604 12.9507 19.1365 12.3177 18.8579 11.3438C18.5459 10.2531 18.9503 9.10395 19.2968 8.37356C20.0281 6.83163 20.7301 3.60169 17.8828 1.65399C16.3388 0.690276 14.0787 0.0762456 12.8978 0.000650658C12.8852 -0.000309586 12.8731 -0.000118966 12.8609 0.000650658ZM12.8794 10.4188C13.6985 10.4339 14.2749 11.451 14.2749 12.7559C14.2749 13.4737 13.3117 13.3946 12.8978 13.3003V13.2915C12.8918 13.293 12.8857 13.2945 12.8794 13.296C12.8731 13.2945 12.8669 13.293 12.8609 13.2915V13.3003C12.447 13.3946 11.4839 13.4737 11.4839 12.7559C11.4839 11.451 12.0603 10.4339 12.8794 10.4188ZM12.8794 19.7739C10.7269 20.5072 6.24505 22.1164 5.3894 22.7379C4.88652 23.1031 4.66227 23.5219 4.46042 23.8988C4.23172 24.3259 4.03177 24.6993 3.48792 24.8803C2.66882 25.153 2.00899 24.8966 1.78147 24.7343C1.65145 24.5557 1.46943 24.1013 1.78147 23.7117C2.32753 23.0884 2.36654 22.6729 2.31778 22.5431C2.20402 22.5269 1.85948 22.4554 1.39142 22.2996C0.232575 22.0103 0.317026 21.6732 0.460837 21.0992L0.465058 21.0823C0.611326 20.498 1.39142 20.1085 2.31778 20.1085C3.05887 20.1085 4.47929 20.2058 5.09686 20.2545L9.82618 18.7451C8.15223 18.1608 4.68732 16.9921 4.21926 16.9921C3.19539 17.333 1.39142 17.333 0.952617 17.1382C0.513814 16.9434 0.465058 16.6026 0.465058 15.9209C0.465058 15.3755 1.34266 15.0769 1.78147 14.9957C1.65145 14.801 1.39142 14.2361 1.39142 13.535C1.39142 12.8338 2.39904 12.7234 2.90285 12.7559C2.96786 12.7559 3.17588 12.8143 3.48792 13.048C3.64456 13.1654 3.7383 13.2906 3.87333 13.4709C4.07455 13.7396 4.36747 14.1308 5.09686 14.801C6.06926 15.6944 10.678 17.1786 12.8794 17.8146C15.0808 17.1786 19.6895 15.6944 20.6619 14.801C21.3913 14.1308 21.6842 13.7396 21.8855 13.4709C22.0205 13.2906 22.1142 13.1654 22.2709 13.048C22.5829 12.8143 22.7909 12.7559 22.8559 12.7559C23.3597 12.7234 24.3674 12.8338 24.3674 13.535C24.3674 14.2361 24.1073 14.801 23.9773 14.9957C24.4161 15.0769 25.2937 15.3755 25.2937 15.9209C25.2937 16.6026 25.245 16.9434 24.8062 17.1382C24.3674 17.333 22.5634 17.333 21.5395 16.9921C21.0715 16.9921 17.6066 18.1608 15.9326 18.7451L20.6619 20.2545C21.2795 20.2058 22.6999 20.1085 23.441 20.1085C24.3674 20.1085 25.1475 20.498 25.2937 21.0823L25.298 21.0992C25.4418 21.6732 25.5262 22.0103 24.3674 22.2996C23.8993 22.4554 23.5548 22.5269 23.441 22.5431C23.3923 22.6729 23.4313 23.0884 23.9773 23.7117C24.2894 24.1013 24.1073 24.5557 23.9773 24.7343C23.7498 24.8966 23.09 25.153 22.2709 24.8803C21.727 24.6993 21.5271 24.3259 21.2984 23.8988C21.0965 23.5219 20.8723 23.1031 20.3694 22.7379C19.5137 22.1164 15.0319 20.5072 12.8794 19.7739ZM18.0429 7.97027C17.9259 6.17838 16.3714 5.93894 15.5425 5.93894C14.7136 5.93895 13.6759 6.19617 13.7385 7.4971C13.8164 9.11385 15.3614 9.6745 16.5315 9.7232C17.7017 9.77189 18.1405 8.84674 18.0429 7.97027ZM7.71584 7.97027C7.83285 6.17838 9.38742 5.93894 10.2163 5.93894C11.0452 5.93895 12.0829 6.19617 12.0203 7.4971C11.9424 9.11385 10.3974 9.6745 9.22727 9.7232C8.05713 9.77189 7.61833 8.84674 7.71584 7.97027Z" fill="black"/>
</svg>
