<svg width="301" height="204" viewBox="0 0 301 204" fill="none" xmlns="http://www.w3.org/2000/svg">
<path fill-rule="evenodd" clip-rule="evenodd" d="M150.5 123.557C124.583 132.386 70.6225 151.761 60.3204 159.243C54.2658 163.641 51.5659 168.683 49.1355 173.221C46.382 178.363 43.9746 182.859 37.4266 185.039C27.5647 188.322 19.6204 185.234 16.8809 183.28C15.3155 181.13 13.124 175.658 16.8809 170.968C23.4555 163.464 23.9252 158.462 23.3381 156.898C21.9684 156.703 17.8202 155.843 12.1848 153.967C-1.76772 150.483 -0.750931 146.425 0.980554 139.513L1.03137 139.31C2.79244 132.275 12.1848 127.585 23.3381 127.585C32.2608 127.585 49.3627 128.758 56.7983 129.344L113.739 111.17C93.5849 104.135 51.8674 90.0648 46.232 90.0648C33.9045 94.1686 12.1848 94.1686 6.90158 91.8235C1.61839 89.4785 1.03137 85.3747 1.03137 77.1671C1.03137 70.601 11.5977 67.0053 16.8809 66.0282C15.3155 63.6831 12.1848 56.8825 12.1848 48.4404C12.1848 39.9983 24.3165 38.6694 30.3824 39.0603C31.1651 39.0603 33.6697 39.7638 37.4266 42.5778C39.3126 43.9905 40.4412 45.4976 42.067 47.669C44.4897 50.9043 48.0164 55.6143 56.7983 63.6831C68.5059 74.4401 123.995 92.3096 150.5 99.967C177.005 92.3096 232.494 74.4401 244.202 63.6831C252.984 55.6143 256.51 50.9043 258.933 47.669C260.559 45.4976 261.687 43.9905 263.573 42.5778C267.33 39.7638 269.835 39.0603 270.618 39.0603C276.683 38.6694 288.815 39.9983 288.815 48.4404C288.815 56.8825 285.684 63.6831 284.119 66.0282C289.402 67.0053 299.969 70.601 299.969 77.1671C299.969 85.3747 299.382 89.4785 294.098 91.8235C288.815 94.1686 267.095 94.1686 254.768 90.0648C249.133 90.0648 207.415 104.135 187.261 111.17L244.202 129.344C251.637 128.758 268.739 127.585 277.662 127.585C288.815 127.585 298.208 132.275 299.969 139.31L300.019 139.513C301.751 146.425 302.768 150.483 288.815 153.967C283.18 155.843 279.032 156.703 277.662 156.898C277.075 158.462 277.544 163.464 284.119 170.968C287.876 175.658 285.684 181.13 284.119 183.28C281.38 185.234 273.435 188.322 263.573 185.039C257.025 182.859 254.618 178.363 251.864 173.221C249.434 168.683 246.734 163.641 240.68 159.243C230.377 151.761 176.417 132.386 150.5 123.557Z" fill="white"/>
<path d="M144.863 3.01396L144.865 3.0138C145.102 2.99885 145.385 2.99182 145.705 3.01488C160.39 3.95869 188.076 11.4904 207.106 23.3691L207.16 23.4024L207.211 23.4379C225.206 35.747 232.052 52.2232 233.18 67.9838C234.298 83.613 229.808 98.4986 225.252 108.103C221.14 116.773 216.704 129.737 220.142 141.754C223.831 154.648 218.884 163.37 215.269 166.98C213.458 168.789 210.603 169.591 208.014 170.084C205.293 170.602 202.026 170.908 198.731 171.217L198.625 171.227C196.379 171.437 194.086 171.653 191.801 171.938C183.105 173.023 181.167 176.567 180.887 178.249C180.702 179.355 180.643 181.446 180.678 183.823C180.711 186.122 180.826 188.444 180.921 189.866L181.023 191.393L179.847 192.372C177.634 194.213 173.463 196.244 167.81 197.827C162.068 199.435 154.565 200.648 145.512 200.688H145.499L145.283 200.687C145.282 200.687 145.28 200.687 145.279 200.687C145.247 200.687 145.216 200.687 145.188 200.687L145.15 200.687C145.11 200.687 145.082 200.687 145.055 200.687L145.041 200.687C135.988 200.647 128.486 199.434 122.744 197.827C117.09 196.243 112.919 194.214 110.707 192.372L109.53 191.393L109.632 189.866C109.727 188.444 109.842 186.122 109.876 183.823C109.91 181.446 109.851 179.355 109.667 178.249C109.386 176.567 107.448 173.023 98.7527 171.938C96.4674 171.653 94.1738 171.437 91.9281 171.227L91.8223 171.217C88.5268 170.908 85.2606 170.602 82.5392 170.084C79.9502 169.591 77.095 168.788 75.284 166.98C71.6697 163.37 66.7225 154.648 70.4111 141.754C73.8492 129.737 69.4132 116.773 65.3011 108.103C60.7456 98.4986 56.2553 83.613 57.3736 67.9838C58.5014 52.2232 65.3475 35.747 83.342 23.4379L83.3939 23.4024L83.4473 23.3691C102.484 11.4865 130.182 3.9538 144.863 3.01396ZM135.481 163.583C137.551 163.994 139.989 163.9 142.055 163.626V162.189L145.277 162.993L148.499 162.189V163.626C150.564 163.9 153.003 163.994 155.072 163.583C156.519 163.295 157.516 162.813 158.121 162.237C158.638 161.745 159.078 160.995 159.078 159.581C159.078 152.126 157.425 145.692 154.789 141.208C152.167 136.747 148.806 134.53 145.277 134.443C141.748 134.53 138.387 136.747 135.764 141.208C133.128 145.692 131.475 152.126 131.475 159.581C131.475 160.995 131.915 161.745 132.433 162.237C133.038 162.813 134.034 163.295 135.481 163.583Z" fill="white" stroke="black" stroke-width="6"/>
<path d="M153.952 94.5364C150.907 110.099 161.951 118.763 167.951 121.532C187.451 130.532 202.127 126.032 204.451 115.032C208.359 96.532 198.951 87.5323 191.452 84.0364C169.451 77.033 156.202 83.0364 153.952 94.5364Z" fill="black"/>
<path d="M136.233 94.5364C139.277 110.099 128.234 118.763 122.234 121.532C102.734 130.532 88.058 126.032 85.7339 115.032C81.8254 96.532 91.2336 87.5323 98.7329 84.0364C120.734 77.033 133.983 83.0364 136.233 94.5364Z" fill="black"/>
</svg>
